<?xml version="1.0" encoding="us-ascii" standalone="no"?><svg xmlns="http://www.w3.org/2000/svg" xmlns:xlink="http://www.w3.org/1999/xlink" contentStyleType="text/css" height="417px" preserveAspectRatio="none" style="width:1199px;height:417px;background:#FFFFFF;" version="1.1" viewBox="0 0 1199 417" width="1199px" zoomAndPan="magnify"><defs/><g><!--cluster chain_of_responsibility_pattern--><g id="cluster_chain_of_responsibility_pattern"><path d="M8.5,6 L264.5,6 A3.75,3.75 0 0 1 267,8.5 L274,28.2969 L1013.5,28.2969 A2.5,2.5 0 0 1 1016,30.7969 L1016,407.5 A2.5,2.5 0 0 1 1013.5,410 L8.5,410 A2.5,2.5 0 0 1 6,407.5 L6,8.5 A2.5,2.5 0 0 1 8.5,6 " fill="none" style="stroke:#000000;stroke-width:1.5;"/><line style="stroke:#000000;stroke-width:1.5;" x1="6" x2="274" y1="28.2969" y2="28.2969"/><text fill="#000000" font-family="sans-serif" font-size="14" font-weight="bold" lengthAdjust="spacing" textLength="255" x="10" y="20.9951">chain_of_responsibility_pattern</text></g><!--cluster chain_of_responsibility_pattern.dart--><g id="cluster_chain_of_responsibility_pattern.dart"><path d="M32.5,49 L328.5,49 A3.75,3.75 0 0 1 331,51.5 L338,71.2969 L989.5,71.2969 A2.5,2.5 0 0 1 992,73.7969 L992,383.5 A2.5,2.5 0 0 1 989.5,386 L32.5,386 A2.5,2.5 0 0 1 30,383.5 L30,51.5 A2.5,2.5 0 0 1 32.5,49 " fill="none" style="stroke:#000000;stroke-width:1.5;"/><line style="stroke:#000000;stroke-width:1.5;" x1="30" x2="338" y1="71.2969" y2="71.2969"/><text fill="#000000" font-family="sans-serif" font-size="14" font-weight="bold" lengthAdjust="spacing" textLength="295" x="34" y="63.9951">chain_of_responsibility_pattern.dart</text></g><!--cluster dart--><g id="cluster_dart"><path d="M1042.5,30.5 L1078.5,30.5 A3.75,3.75 0 0 1 1081,33 L1088,52.7969 L1189.5,52.7969 A2.5,2.5 0 0 1 1192,55.2969 L1192,194 A2.5,2.5 0 0 1 1189.5,196.5 L1042.5,196.5 A2.5,2.5 0 0 1 1040,194 L1040,33 A2.5,2.5 0 0 1 1042.5,30.5 " fill="none" style="stroke:#000000;stroke-width:1.5;"/><line style="stroke:#000000;stroke-width:1.5;" x1="1040" x2="1088" y1="52.7969" y2="52.7969"/><text fill="#000000" font-family="sans-serif" font-size="14" font-weight="bold" lengthAdjust="spacing" textLength="35" x="1044" y="45.4951">dart</text></g><!--cluster core--><g id="cluster_core"><path d="M1066.5,73.5 L1102.5,73.5 A3.75,3.75 0 0 1 1105,76 L1112,95.7969 L1165.5,95.7969 A2.5,2.5 0 0 1 1168,98.2969 L1168,170 A2.5,2.5 0 0 1 1165.5,172.5 L1066.5,172.5 A2.5,2.5 0 0 1 1064,170 L1064,76 A2.5,2.5 0 0 1 1066.5,73.5 " fill="none" style="stroke:#000000;stroke-width:1.5;"/><line style="stroke:#000000;stroke-width:1.5;" x1="1064" x2="1112" y1="95.7969" y2="95.7969"/><text fill="#000000" font-family="sans-serif" font-size="14" font-weight="bold" lengthAdjust="spacing" textLength="35" x="1068" y="88.4951">core</text></g><!--class BookingHandler--><g id="elem_BookingHandler"><rect codeLine="3" fill="#F1F1F1" height="96.8906" id="BookingHandler" rx="2.5" ry="2.5" style="stroke:#181818;stroke-width:0.5;" width="239" x="241.5" y="84"/><ellipse cx="299.25" cy="100" fill="#A9DCDF" rx="11" ry="11" style="stroke:#181818;stroke-width:1.0;"/><path d="M301.3281,101.8125 L301.7188,102.7969 L301.3281,102.7969 C300.875,102.7969 300.7656,102.8125 300.6094,102.9219 C300.3594,103.0781 300.2031,103.3594 300.2031,103.6563 C300.2031,103.9219 300.3438,104.1719 300.5625,104.3281 C300.7031,104.4531 300.9063,104.5 301.3281,104.5 L303.6875,104.5 C304.0469,104.5 304.2656,104.4688 304.4063,104.375 C304.6563,104.2344 304.8125,103.9375 304.8125,103.6563 C304.8125,103.375 304.6719,103.125 304.4531,102.9688 C304.2813,102.8281 304.125,102.7969 303.6563,102.7969 L300.2656,94.5938 L296.5938,94.5938 C296.1406,94.5938 296.0156,94.6094 295.8594,94.7031 C295.6094,94.875 295.4531,95.1563 295.4531,95.4375 C295.4531,95.7188 295.5938,95.9688 295.8125,96.1406 C295.9844,96.25 296.1563,96.2813 296.5938,96.2813 L297.6719,96.2813 L295.0313,102.7969 C294.6094,102.7969 294.4531,102.8125 294.2969,102.9219 C294.0469,103.0781 293.8906,103.3594 293.8906,103.6563 C293.8906,104.2188 294.2656,104.5 295.0156,104.5 L297.2813,104.5 C297.6406,104.5 297.8594,104.4688 297.9844,104.375 C298.25,104.2344 298.3906,103.9375 298.3906,103.6563 C298.3906,103.375 298.2656,103.125 298.0469,102.9531 C297.875,102.8281 297.7344,102.7969 297.2813,102.7969 L296.8906,102.7969 L297.2813,101.8125 L301.3281,101.8125 Z M300.625,100.1094 L297.9531,100.1094 L299.2969,96.8438 L300.625,100.1094 Z " fill="#000000"/><text fill="#000000" font-family="sans-serif" font-size="14" font-style="italic" lengthAdjust="spacing" textLength="115" x="319.75" y="104.8467">BookingHandler</text><line style="stroke:#181818;stroke-width:0.5;" x1="242.5" x2="479.5" y1="116" y2="116"/><rect fill="none" height="6" style="stroke:#C82930;stroke-width:1.0;" width="6" x="249.5" y="126.6484"/><text fill="#000000" font-family="sans-serif" font-size="14" lengthAdjust="spacing" textLength="213" x="261.5" y="132.9951">BookingHandler _nextHandler</text><ellipse cx="252.5" cy="145.9453" fill="none" rx="3" ry="3" style="stroke:#038048;stroke-width:1.0;"/><text fill="#000000" font-family="sans-serif" font-size="14" lengthAdjust="spacing" textLength="206" x="261.5" y="149.292">BookingHandler nextHandler</text><line style="stroke:#181818;stroke-width:0.5;" x1="242.5" x2="479.5" y1="156.5938" y2="156.5938"/><ellipse cx="252.5" cy="170.2422" fill="#84BE84" rx="3" ry="3" style="stroke:#038048;stroke-width:1.0;"/><text fill="#000000" font-family="sans-serif" font-size="14" lengthAdjust="spacing" textLength="159" x="261.5" y="173.5889">void processBooking()</text></g><!--class FlightBookingHandler--><g id="elem_FlightBookingHandler"><rect codeLine="11" fill="#F1F1F1" height="64.2969" id="FlightBookingHandler" rx="2.5" ry="2.5" style="stroke:#181818;stroke-width:0.5;" width="187" x="46.5" y="273.5"/><ellipse cx="61.5" cy="289.5" fill="#ADD1B2" rx="11" ry="11" style="stroke:#181818;stroke-width:1.0;"/><path d="M63.8438,285.1719 C62.9063,284.7344 62.3125,284.5938 61.4375,284.5938 C58.8125,284.5938 56.8125,286.6719 56.8125,289.3906 L56.8125,290.5156 C56.8125,293.0938 58.9219,294.9844 61.8125,294.9844 C63.0313,294.9844 64.1875,294.6875 64.9375,294.1406 C65.5156,293.7344 65.8438,293.2813 65.8438,292.8906 C65.8438,292.4375 65.4531,292.0469 64.9844,292.0469 C64.7656,292.0469 64.5625,292.125 64.375,292.3125 C63.9219,292.7969 63.9219,292.7969 63.7344,292.8906 C63.3125,293.1563 62.625,293.2813 61.8594,293.2813 C59.8125,293.2813 58.5156,292.1875 58.5156,290.4844 L58.5156,289.3906 C58.5156,287.6094 59.7656,286.2969 61.5,286.2969 C62.0781,286.2969 62.6875,286.4531 63.1563,286.7031 C63.6406,286.9844 63.8125,287.2031 63.9063,287.6094 C63.9688,288.0156 64,288.1406 64.1406,288.2656 C64.2813,288.4063 64.5156,288.5156 64.7344,288.5156 C65,288.5156 65.2656,288.375 65.4375,288.1563 C65.5469,288 65.5781,287.8125 65.5781,287.3906 L65.5781,285.9688 C65.5781,285.5313 65.5625,285.4063 65.4688,285.25 C65.3125,284.9844 65.0313,284.8438 64.7344,284.8438 C64.4375,284.8438 64.2344,284.9375 64.0156,285.25 L63.8438,285.1719 Z " fill="#000000"/><text fill="#000000" font-family="sans-serif" font-size="14" lengthAdjust="spacing" textLength="155" x="75.5" y="294.3467">FlightBookingHandler</text><line style="stroke:#181818;stroke-width:0.5;" x1="47.5" x2="232.5" y1="305.5" y2="305.5"/><line style="stroke:#181818;stroke-width:0.5;" x1="47.5" x2="232.5" y1="313.5" y2="313.5"/><ellipse cx="57.5" cy="327.1484" fill="#84BE84" rx="3" ry="3" style="stroke:#038048;stroke-width:1.0;"/><text fill="#000000" font-family="sans-serif" font-size="14" lengthAdjust="spacing" textLength="159" x="66.5" y="330.4951">void processBooking()</text></g><!--class HotelBookingHandler--><g id="elem_HotelBookingHandler"><rect codeLine="17" fill="#F1F1F1" height="64.2969" id="HotelBookingHandler" rx="2.5" ry="2.5" style="stroke:#181818;stroke-width:0.5;" width="185" x="268.5" y="273.5"/><ellipse cx="283.5" cy="289.5" fill="#ADD1B2" rx="11" ry="11" style="stroke:#181818;stroke-width:1.0;"/><path d="M285.8438,285.1719 C284.9063,284.7344 284.3125,284.5938 283.4375,284.5938 C280.8125,284.5938 278.8125,286.6719 278.8125,289.3906 L278.8125,290.5156 C278.8125,293.0938 280.9219,294.9844 283.8125,294.9844 C285.0313,294.9844 286.1875,294.6875 286.9375,294.1406 C287.5156,293.7344 287.8438,293.2813 287.8438,292.8906 C287.8438,292.4375 287.4531,292.0469 286.9844,292.0469 C286.7656,292.0469 286.5625,292.125 286.375,292.3125 C285.9219,292.7969 285.9219,292.7969 285.7344,292.8906 C285.3125,293.1563 284.625,293.2813 283.8594,293.2813 C281.8125,293.2813 280.5156,292.1875 280.5156,290.4844 L280.5156,289.3906 C280.5156,287.6094 281.7656,286.2969 283.5,286.2969 C284.0781,286.2969 284.6875,286.4531 285.1563,286.7031 C285.6406,286.9844 285.8125,287.2031 285.9063,287.6094 C285.9688,288.0156 286,288.1406 286.1406,288.2656 C286.2813,288.4063 286.5156,288.5156 286.7344,288.5156 C287,288.5156 287.2656,288.375 287.4375,288.1563 C287.5469,288 287.5781,287.8125 287.5781,287.3906 L287.5781,285.9688 C287.5781,285.5313 287.5625,285.4063 287.4688,285.25 C287.3125,284.9844 287.0313,284.8438 286.7344,284.8438 C286.4375,284.8438 286.2344,284.9375 286.0156,285.25 L285.8438,285.1719 Z " fill="#000000"/><text fill="#000000" font-family="sans-serif" font-size="14" lengthAdjust="spacing" textLength="153" x="297.5" y="294.3467">HotelBookingHandler</text><line style="stroke:#181818;stroke-width:0.5;" x1="269.5" x2="452.5" y1="305.5" y2="305.5"/><line style="stroke:#181818;stroke-width:0.5;" x1="269.5" x2="452.5" y1="313.5" y2="313.5"/><ellipse cx="279.5" cy="327.1484" fill="#84BE84" rx="3" ry="3" style="stroke:#038048;stroke-width:1.0;"/><text fill="#000000" font-family="sans-serif" font-size="14" lengthAdjust="spacing" textLength="159" x="288.5" y="330.4951">void processBooking()</text></g><!--class CarRentalBookingHandler--><g id="elem_CarRentalBookingHandler"><rect codeLine="23" fill="#F1F1F1" height="64.2969" id="CarRentalBookingHandler" rx="2.5" ry="2.5" style="stroke:#181818;stroke-width:0.5;" width="217" x="488.5" y="273.5"/><ellipse cx="503.5" cy="289.5" fill="#ADD1B2" rx="11" ry="11" style="stroke:#181818;stroke-width:1.0;"/><path d="M505.8438,285.1719 C504.9063,284.7344 504.3125,284.5938 503.4375,284.5938 C500.8125,284.5938 498.8125,286.6719 498.8125,289.3906 L498.8125,290.5156 C498.8125,293.0938 500.9219,294.9844 503.8125,294.9844 C505.0313,294.9844 506.1875,294.6875 506.9375,294.1406 C507.5156,293.7344 507.8438,293.2813 507.8438,292.8906 C507.8438,292.4375 507.4531,292.0469 506.9844,292.0469 C506.7656,292.0469 506.5625,292.125 506.375,292.3125 C505.9219,292.7969 505.9219,292.7969 505.7344,292.8906 C505.3125,293.1563 504.625,293.2813 503.8594,293.2813 C501.8125,293.2813 500.5156,292.1875 500.5156,290.4844 L500.5156,289.3906 C500.5156,287.6094 501.7656,286.2969 503.5,286.2969 C504.0781,286.2969 504.6875,286.4531 505.1563,286.7031 C505.6406,286.9844 505.8125,287.2031 505.9063,287.6094 C505.9688,288.0156 506,288.1406 506.1406,288.2656 C506.2813,288.4063 506.5156,288.5156 506.7344,288.5156 C507,288.5156 507.2656,288.375 507.4375,288.1563 C507.5469,288 507.5781,287.8125 507.5781,287.3906 L507.5781,285.9688 C507.5781,285.5313 507.5625,285.4063 507.4688,285.25 C507.3125,284.9844 507.0313,284.8438 506.7344,284.8438 C506.4375,284.8438 506.2344,284.9375 506.0156,285.25 L505.8438,285.1719 Z " fill="#000000"/><text fill="#000000" font-family="sans-serif" font-size="14" lengthAdjust="spacing" textLength="185" x="517.5" y="294.3467">CarRentalBookingHandler</text><line style="stroke:#181818;stroke-width:0.5;" x1="489.5" x2="704.5" y1="305.5" y2="305.5"/><line style="stroke:#181818;stroke-width:0.5;" x1="489.5" x2="704.5" y1="313.5" y2="313.5"/><ellipse cx="499.5" cy="327.1484" fill="#84BE84" rx="3" ry="3" style="stroke:#038048;stroke-width:1.0;"/><text fill="#000000" font-family="sans-serif" font-size="14" lengthAdjust="spacing" textLength="159" x="508.5" y="330.4951">void processBooking()</text></g><!--class Booking--><g id="elem_Booking"><rect codeLine="29" fill="#F1F1F1" height="64.2969" id="Booking" rx="2.5" ry="2.5" style="stroke:#181818;stroke-width:0.5;" width="220" x="739" y="100.5"/><ellipse cx="815.25" cy="116.5" fill="#ADD1B2" rx="11" ry="11" style="stroke:#181818;stroke-width:1.0;"/><path d="M817.5938,112.1719 C816.6563,111.7344 816.0625,111.5938 815.1875,111.5938 C812.5625,111.5938 810.5625,113.6719 810.5625,116.3906 L810.5625,117.5156 C810.5625,120.0938 812.6719,121.9844 815.5625,121.9844 C816.7813,121.9844 817.9375,121.6875 818.6875,121.1406 C819.2656,120.7344 819.5938,120.2813 819.5938,119.8906 C819.5938,119.4375 819.2031,119.0469 818.7344,119.0469 C818.5156,119.0469 818.3125,119.125 818.125,119.3125 C817.6719,119.7969 817.6719,119.7969 817.4844,119.8906 C817.0625,120.1563 816.375,120.2813 815.6094,120.2813 C813.5625,120.2813 812.2656,119.1875 812.2656,117.4844 L812.2656,116.3906 C812.2656,114.6094 813.5156,113.2969 815.25,113.2969 C815.8281,113.2969 816.4375,113.4531 816.9063,113.7031 C817.3906,113.9844 817.5625,114.2031 817.6563,114.6094 C817.7188,115.0156 817.75,115.1406 817.8906,115.2656 C818.0313,115.4063 818.2656,115.5156 818.4844,115.5156 C818.75,115.5156 819.0156,115.375 819.1875,115.1563 C819.2969,115 819.3281,114.8125 819.3281,114.3906 L819.3281,112.9688 C819.3281,112.5313 819.3125,112.4063 819.2188,112.25 C819.0625,111.9844 818.7813,111.8438 818.4844,111.8438 C818.1875,111.8438 817.9844,111.9375 817.7656,112.25 L817.5938,112.1719 Z " fill="#000000"/><text fill="#000000" font-family="sans-serif" font-size="14" lengthAdjust="spacing" textLength="59" x="835.75" y="121.3467">Booking</text><line style="stroke:#181818;stroke-width:0.5;" x1="740" x2="958" y1="132.5" y2="132.5"/><ellipse cx="750" cy="146.1484" fill="none" rx="3" ry="3" style="stroke:#038048;stroke-width:1.0;"/><text fill="#000000" font-family="sans-serif" font-size="14" lengthAdjust="spacing" textLength="194" x="759" y="149.4951">BookingType bookingType</text><line style="stroke:#181818;stroke-width:0.5;" x1="740" x2="958" y1="156.7969" y2="156.7969"/></g><!--class BookingType--><g id="elem_BookingType"><rect codeLine="35" fill="#F1F1F1" height="129.4844" id="BookingType" rx="2.5" ry="2.5" style="stroke:#181818;stroke-width:0.5;" width="217" x="740.5" y="241"/><ellipse cx="797.25" cy="257" fill="#ADD1B2" rx="11" ry="11" style="stroke:#181818;stroke-width:1.0;"/><path d="M799.5938,252.6719 C798.6563,252.2344 798.0625,252.0938 797.1875,252.0938 C794.5625,252.0938 792.5625,254.1719 792.5625,256.8906 L792.5625,258.0156 C792.5625,260.5938 794.6719,262.4844 797.5625,262.4844 C798.7813,262.4844 799.9375,262.1875 800.6875,261.6406 C801.2656,261.2344 801.5938,260.7813 801.5938,260.3906 C801.5938,259.9375 801.2031,259.5469 800.7344,259.5469 C800.5156,259.5469 800.3125,259.625 800.125,259.8125 C799.6719,260.2969 799.6719,260.2969 799.4844,260.3906 C799.0625,260.6563 798.375,260.7813 797.6094,260.7813 C795.5625,260.7813 794.2656,259.6875 794.2656,257.9844 L794.2656,256.8906 C794.2656,255.1094 795.5156,253.7969 797.25,253.7969 C797.8281,253.7969 798.4375,253.9531 798.9063,254.2031 C799.3906,254.4844 799.5625,254.7031 799.6563,255.1094 C799.7188,255.5156 799.75,255.6406 799.8906,255.7656 C800.0313,255.9063 800.2656,256.0156 800.4844,256.0156 C800.75,256.0156 801.0156,255.875 801.1875,255.6563 C801.2969,255.5 801.3281,255.3125 801.3281,254.8906 L801.3281,253.4688 C801.3281,253.0313 801.3125,252.9063 801.2188,252.75 C801.0625,252.4844 800.7813,252.3438 800.4844,252.3438 C800.1875,252.3438 799.9844,252.4375 799.7656,252.75 L799.5938,252.6719 Z " fill="#000000"/><text fill="#000000" font-family="sans-serif" font-size="14" lengthAdjust="spacing" textLength="95" x="817.75" y="261.8467">BookingType</text><line style="stroke:#181818;stroke-width:0.5;" x1="741.5" x2="956.5" y1="273" y2="273"/><ellipse cx="751.5" cy="286.6484" fill="none" rx="3" ry="3" style="stroke:#038048;stroke-width:1.0;"/><text fill="#000000" font-family="sans-serif" font-size="14" lengthAdjust="spacing" textLength="63" x="760.5" y="289.9951">int index</text><ellipse cx="751.5" cy="302.9453" fill="none" rx="3" ry="3" style="stroke:#038048;stroke-width:1.0;"/><text fill="#000000" font-family="sans-serif" font-size="14" lengthAdjust="spacing" text-decoration="underline" textLength="191" x="760.5" y="306.292">List&lt;BookingType&gt; values</text><ellipse cx="751.5" cy="319.2422" fill="none" rx="3" ry="3" style="stroke:#038048;stroke-width:1.0;"/><text fill="#000000" font-family="sans-serif" font-size="14" lengthAdjust="spacing" text-decoration="underline" textLength="138" x="760.5" y="322.5889">BookingType flight</text><ellipse cx="751.5" cy="335.5391" fill="none" rx="3" ry="3" style="stroke:#038048;stroke-width:1.0;"/><text fill="#000000" font-family="sans-serif" font-size="14" lengthAdjust="spacing" text-decoration="underline" textLength="137" x="760.5" y="338.8857">BookingType hotel</text><ellipse cx="751.5" cy="351.8359" fill="none" rx="3" ry="3" style="stroke:#038048;stroke-width:1.0;"/><text fill="#000000" font-family="sans-serif" font-size="14" lengthAdjust="spacing" text-decoration="underline" textLength="168" x="760.5" y="355.1826">BookingType carRental</text><line style="stroke:#181818;stroke-width:0.5;" x1="741.5" x2="956.5" y1="362.4844" y2="362.4844"/></g><!--class Enum--><g id="elem_Enum"><rect fill="#F1F1F1" height="48" id="Enum" rx="2.5" ry="2.5" style="stroke:#181818;stroke-width:0.5;" width="72" x="1080" y="108.5"/><ellipse cx="1095" cy="124.5" fill="#ADD1B2" rx="11" ry="11" style="stroke:#181818;stroke-width:1.0;"/><path d="M1097.3438,120.1719 C1096.4063,119.7344 1095.8125,119.5938 1094.9375,119.5938 C1092.3125,119.5938 1090.3125,121.6719 1090.3125,124.3906 L1090.3125,125.5156 C1090.3125,128.0938 1092.4219,129.9844 1095.3125,129.9844 C1096.5313,129.9844 1097.6875,129.6875 1098.4375,129.1406 C1099.0156,128.7344 1099.3438,128.2813 1099.3438,127.8906 C1099.3438,127.4375 1098.9531,127.0469 1098.4844,127.0469 C1098.2656,127.0469 1098.0625,127.125 1097.875,127.3125 C1097.4219,127.7969 1097.4219,127.7969 1097.2344,127.8906 C1096.8125,128.1563 1096.125,128.2813 1095.3594,128.2813 C1093.3125,128.2813 1092.0156,127.1875 1092.0156,125.4844 L1092.0156,124.3906 C1092.0156,122.6094 1093.2656,121.2969 1095,121.2969 C1095.5781,121.2969 1096.1875,121.4531 1096.6563,121.7031 C1097.1406,121.9844 1097.3125,122.2031 1097.4063,122.6094 C1097.4688,123.0156 1097.5,123.1406 1097.6406,123.2656 C1097.7813,123.4063 1098.0156,123.5156 1098.2344,123.5156 C1098.5,123.5156 1098.7656,123.375 1098.9375,123.1563 C1099.0469,123 1099.0781,122.8125 1099.0781,122.3906 L1099.0781,120.9688 C1099.0781,120.5313 1099.0625,120.4063 1098.9688,120.25 C1098.8125,119.9844 1098.5313,119.8438 1098.2344,119.8438 C1097.9375,119.8438 1097.7344,119.9375 1097.5156,120.25 L1097.3438,120.1719 Z " fill="#000000"/><text fill="#000000" font-family="sans-serif" font-size="14" lengthAdjust="spacing" textLength="40" x="1109" y="129.3467">Enum</text><line style="stroke:#181818;stroke-width:0.5;" x1="1081" x2="1151" y1="140.5" y2="140.5"/><line style="stroke:#181818;stroke-width:0.5;" x1="1081" x2="1151" y1="148.5" y2="148.5"/></g><!--reverse link BookingHandler to BookingHandler--><g id="link_BookingHandler_BookingHandler"><path codeLine="9" d="M493.078,105.861 C506.751,111.088 515.5,119.968 515.5,132.5 C515.5,148.541 501.166,158.598 480.519,162.671 " fill="none" id="BookingHandler-backto-BookingHandler" style="stroke:#181818;stroke-width:1.0;"/><polygon fill="none" points="480.519,102.329,485.2119,107.8041,492.0708,105.5779,487.3779,100.1028,480.519,102.329" style="stroke:#181818;stroke-width:1.0;"/></g><!--reverse link BookingHandler to FlightBookingHandler--><g id="link_BookingHandler_FlightBookingHandler"><path codeLine="15" d="M283.346,193.585 C248.588,220.479 209.061,251.063 180.33,273.294 " fill="none" id="BookingHandler-backto-FlightBookingHandler" style="stroke:#181818;stroke-width:1.0;"/><polygon fill="none" points="279.338,187.836,299.439,181.133,287.905,198.908,279.338,187.836" style="stroke:#181818;stroke-width:1.0;"/></g><!--reverse link BookingHandler to HotelBookingHandler--><g id="link_BookingHandler_HotelBookingHandler"><path codeLine="21" d="M361,201.341 C361,226.216 361,253.176 361,273.294 " fill="none" id="BookingHandler-backto-HotelBookingHandler" style="stroke:#181818;stroke-width:1.0;"/><polygon fill="none" points="354,201.133,361,181.133,368,201.133,354,201.133" style="stroke:#181818;stroke-width:1.0;"/></g><!--reverse link BookingHandler to CarRentalBookingHandler--><g id="link_BookingHandler_CarRentalBookingHandler"><path codeLine="27" d="M443.17,193.038 C480.468,220.064 523.043,250.913 553.933,273.294 " fill="none" id="BookingHandler-backto-CarRentalBookingHandler" style="stroke:#181818;stroke-width:1.0;"/><polygon fill="none" points="438.827,198.536,426.739,181.133,447.042,187.2,438.827,198.536" style="stroke:#181818;stroke-width:1.0;"/></g><!--reverse link Booking to BookingType--><g id="link_Booking_BookingType"><path codeLine="33" d="M849,178.08 C849,197.203 849,219.901 849,240.75 " fill="none" id="Booking-backto-BookingType" style="stroke:#181818;stroke-width:1.0;"/><polygon fill="none" points="849,164.864,845,170.864,849,176.864,853,170.864,849,164.864" style="stroke:#181818;stroke-width:1.0;"/></g><!--reverse link BookingType to BookingType--><g id="link_BookingType_BookingType"><path codeLine="43" d="M970.463,278.378 C983.855,283.533 992.5,292.574 992.5,305.5 C992.5,322.213 978.048,332.43 957.57,336.1512 " fill="none" id="BookingType-backto-BookingType" style="stroke:#181818;stroke-width:1.0;"/><polygon fill="none" points="957.57,274.849,962.3008,280.2914,969.1441,278.0178,964.4133,272.5754,957.57,274.849" style="stroke:#181818;stroke-width:1.0;"/></g><!--reverse link Enum to BookingType--><g id="link_Enum_BookingType"><path codeLine="44" d="M1062.97,167.463 C1030.27,188.409 987.282,215.937 948.425,240.823 " fill="none" id="Enum-backto-BookingType" style="stroke:#181818;stroke-width:1.0;"/><polygon fill="none" points="1059.37,161.454,1079.99,156.562,1066.92,173.243,1059.37,161.454" style="stroke:#181818;stroke-width:1.0;"/></g><!--SRC=[tPJ1Ri8m38RlUGgBqoRKFK24TjYqYGEdRVVAJGsD5f8gCGZ4UFSLsca5jTebsO5RdF-NOtzE4eZ1uff2ZOhUgKQFx3n8AGGMWJqg1cKm19Ye2hNDtJBtZTlPe0jjDE_p6fd9Mod_C3oKw5dA9-S-jLtDqPQ6_0GE0Y2xt8JSqewxe96dL_ALkdMwXDexHI5qphjxSHGYLSakorBX428kxLUZLnKFCVz_RBElYDm66ujDR-wOp0t26-ehDhjdz6za6M-HtrXliHbswJjcNVInhmcAttK2Qac-k5EjgGYTSxUKj6NGjgHT4nm28sjrXEb21vxrp8-mHREXS67g0rwU_vTHkJgze55L_ToF1BDfMqqsdqcxfvmdAL_iPXtvwVGF-mO0]--></g></svg>